<svg id="Layer_1" data-name="Layer 1" xmlns="http://www.w3.org/2000/svg" viewBox="0 0 867.88 448.15">
  <defs>
    <style>
      .cls-1, .cls-2 {
        fill: #f0ff8b;
        stroke: #414042;
        stroke-miterlimit: 10;
        stroke-width: 2.49px;
      }

      .cls-1 {
        fill-rule: evenodd;
      }
    </style>
  </defs>
  <title>logo</title>
  <g>
    <path class="cls-1" d="M510.71,58.17c1.41-6.69-10.15-5.79-6.47,0C507.82,57.78,508.26,59.28,510.71,58.17Zm-3.24,46.12c3.44,1,6.91,1.15,4.86,5.66,4.13-1,8.13,1.76,11.33,4,5.88-1.43,9.4-.28,13.75,1.61,1.81-6.82,8.56-8.7,13.76-12.14-1.38-3.9-.43-7.18,3.23-8.08,1.11-7.9-4.82-11.06-1.61-18.62-8.15-1.82-10.63-9.33-17-12.94-.64,1.78-1.62,3.23-4,3.24-2.19-.51-2-3.38-4.86-3.24-1.09,3.81-5.35,4.85-9.71,3.24-2.49,5.6-6.76,9.42-12.13,12.13,4.21,3.81-.36,9.59-2.43,12.14C504.25,96.67,508.16,97.84,507.47,104.29ZM645,80.82c7.55,2.3,14.17-3,14.57-10.52-6.51-1.32-13.94,2.54-15.37,8.9C644.84,79.38,645.16,79.88,645,80.82Zm72.82,31.56c.18-3,1.12-3.11,0-5.67-4.48,0-6.8-4.32-11.32-5.66-4.36-1.29-9.91.74-12.95-3.24-1.45,3.11-4.89,3.91-8.9,2.43-1.09,6.73-9.37,6.27-8.9,14.56a4.57,4.57,0,0,0-3.23.81c-.61,2.49,2.21,1.56,1.61,4-.71,2.25-4,1.92-4,4.85,4.81,1.66,5,7.93,6.47,13,4.88,1.87,6.21,7.27,11.33,8.9-6.48,2.43-11.92,5.89-12.14,14.57,17.54,8.69,18.59-20.85,37.22-16.19,3.7-8.48,12.6-16,7.28-26.7,1-2,4.08-1.85,4.05-4.86C722.38,112.69,718.45,114.2,717.84,112.38ZM417.66,200.57c-4.6-1-8.4-2.92-12.94-4C404.92,201.46,414.46,201.33,417.66,200.57ZM730,266.92c2.23,2.89,8.88,1.64,8.9-2.43C737,260.29,729.87,262.31,730,266.92ZM452.46,403.66c-3.47-.5-3.3,2.63-6.48,2.43-3.8-1.32-4.12-6.13-5.66-9.71-3.3-.6-2.79,2.6-6.47,1.62-2.42-1.1-3.36-3.66-4.86-5.67-7.42,1.48-9.07-2.8-12.95-4.85-1.41,1.27-1.67,3.71-4,4-7.74-3.22-8.65,6.94-17,3.24-2.67,9.23-9.8,14.45-20.23,13.75-.29,4.88,5.47,3.7,6.47,7.29,1.41,7.07-2.57,8.75-3.24,13.75,2.7,4.53,4.7,11.18,5.67,19.42,4.19-.14,4.93,3.17,6.47,5.66,4.32-.53,7.09.47,8.09,3.24.89,4.39-1.63,5.38-1.61,8.9,3.82-1.84,6.82-4.5,12.14-4.85,3.57,2.62,5.93,6.47,13.75,4.85a6.06,6.06,0,0,1,4-4.85c2.47,1,2.17,4.84,5.67,4.85,2.68-1.61-1.33-9.18,4-9.71,3.4-.15,2.5,4,6.48,3.24a15.33,15.33,0,0,0,0-8.9c5.31-3.29,6.49,4,9.71,2.43,0-3.5-4-3-4-6.48,3.69-5-1.2-14.51,4-18.61,3.59-1.8,15.27,2.47,20.22-1.62C456.43,431.58,443.55,417.2,452.46,403.66ZM636.13,402c4,5.87,10.43,1.83,19.41,3.24C653.26,400.05,642.38,400.8,636.13,402ZM472.68,434.4c5.71,1,11.68,1.81,17.8,2.43C488.05,433.06,477.45,433.16,472.68,434.4ZM350.51,457.06c-3.11-6.07-10.66-1.31-11.33,3.24-.84,5.68,5.55,7.18,5.66,12.13,10.69,3.5,9.83-9.61,14.57-14.56-.42-1.2-1.2-2-1.62-3.24C354,454,352.47,455.79,350.51,457.06Zm280,12.14c.19,4.6,8.18,5,10.52,4.85C639.57,470.34,634.66,470.12,630.46,469.2ZM603,495.09c-1.64-7-4.14-13.13-8.09-17.8A44.28,44.28,0,0,0,603,495.09ZM502.62,362.39c-6.15,3.84-14.56,9.71-17,14.57C491.57,372.38,498.6,368.89,502.62,362.39ZM474.3,427.93c1.67-1.46,12,1.74,13.76-2.43C483.15,425.47,473.58,425,474.3,427.93Z" transform="translate(-106.57 -52.24)"/>
    <g>
      <path class="cls-2" d="M121.63,194.82V328.11H107.81V174.24h13.82l-1.23,9.22a96.32,96.32,0,0,1,45-11.37q23.17,0,36.7,15,27-15.34,50.36-15.35,21.81,0,34.4,14.13t12.59,35.93V328.11H285.94V222.77q0-14.75-6.14-24.26-9.84-14.74-31.33-14.74a63,63,0,0,0-27.33,6.44l-12.9,6.45q4.6,8.91,4.6,26.42v105H199.33V219.7q0-16-8.6-24.88-9.82-10.44-30.09-10.44A79.06,79.06,0,0,0,121.63,194.82Z" transform="translate(-106.57 -52.24)"/>
      <path class="cls-2" d="M321.25,174.24h13.82V276.51q0,42.39,43.92,42.38,19.65,0,31.33-10.28T422,278.05V174.24h13.82V328.11H422.29l.93-18.12q-15.68,21.5-44.23,21.5-57.74,0-57.74-56.51Z" transform="translate(-106.57 -52.24)"/>
      <path class="cls-2" d="M474.19,174.24h103.5v12.6L488.32,315.52h95.82v12.59H471.43V315.52l88.75-128.68h-86Z" transform="translate(-106.57 -52.24)"/>
      <path class="cls-2" d="M621.6,174.24H725.1v12.6L635.73,315.52h95.82v12.59H618.84V315.52l88.75-128.68h-86Z" transform="translate(-106.57 -52.24)"/>
      <path class="cls-2" d="M854.87,284.39c-1.27,10-5.33,18-12.15,23.9q-12.59,10.9-33,10.91t-31.63-10.91q-11.21-10.86-11.2-31.18V174.24h-13.2v99.81q0,28.57,14.57,43.16t41.61,14.59q31.68,0,44.35-19.75l4-27.19Z" transform="translate(-106.57 -52.24)"/>
      <path class="cls-2" d="M972.19,381.78H955.6l-62-102L873.3,297.93l-4.48,40.17v8.74c0,12.48-.06,24.76-7.37,29.48-9.84,6.35-642.28-38.44-654-34.76l-8.17-13.45c14.25-5,580.05,31.95,649.35,21.94l5.53-38,4-27.19-3.29-.47a56.46,56.46,0,0,0,.45-7.28v-61.4q0-30.4,8-37.78a31.58,31.58,0,0,1,11.38-6.45l-2.32,16,0,0q-3.51,6.24-3.51,16.86v7.32l0-.35L873.3,282l64.8-59.89,9.81,9.51-44.53,39.62Q924.56,306.55,972.19,381.78Z" transform="translate(-106.57 -52.24)"/>
      <path class="cls-2" d="M868.82,204.35v6.15l0,.82,3.46-23.83Q868.82,193.73,868.82,204.35Z" transform="translate(-106.57 -52.24)"/>
    </g>
  </g>
</svg>
